<mxfile host="app.diagrams.net" modified="2024-02-23T09:03:02.061Z" agent="Mozilla/5.0 (Windows NT 10.0; Win64; x64) AppleWebKit/537.36 (KHTML, like Gecko) Chrome/121.0.0.0 Safari/537.36" etag="B_WnDUrZt2BhzB29EvGD" version="23.1.5" type="device">
  <diagram name="Page-1" id="6483GU3L13XsQskkjvX8">
    <mxGraphModel dx="6538" dy="2088" grid="1" gridSize="10" guides="1" tooltips="1" connect="1" arrows="1" fold="1" page="1" pageScale="1" pageWidth="1169" pageHeight="827" background="#ffffff" math="0" shadow="1">
      <root>
        <mxCell id="0" />
        <mxCell id="1" parent="0" />
        <mxCell id="ndV3JWdsCVKpFoXk2zZ--241" value="" style="rounded=0;whiteSpace=wrap;html=1;" parent="1" vertex="1">
          <mxGeometry x="-192.5" y="700" width="520" height="320" as="geometry" />
        </mxCell>
        <mxCell id="ndV3JWdsCVKpFoXk2zZ--247" value="&#xa;&lt;span style=&quot;color: rgb(0, 0, 0); font-family: Helvetica; font-size: 12px; font-style: normal; font-variant-ligatures: normal; font-variant-caps: normal; font-weight: 400; letter-spacing: normal; orphans: 2; text-align: center; text-indent: 0px; text-transform: none; widows: 2; word-spacing: 0px; -webkit-text-stroke-width: 0px; background-color: rgb(251, 251, 251); text-decoration-thickness: initial; text-decoration-style: initial; text-decoration-color: initial; float: none; display: inline !important;&quot;&gt;Save job 1&lt;/span&gt;&#xa;&#xa;" style="rounded=0;whiteSpace=wrap;html=1;" parent="1" vertex="1">
          <mxGeometry x="-20" y="816" width="337.5" height="164" as="geometry" />
        </mxCell>
        <mxCell id="ndV3JWdsCVKpFoXk2zZ--248" value="" style="rounded=0;whiteSpace=wrap;html=1;" parent="1" vertex="1">
          <mxGeometry x="70" y="816" width="85" height="164" as="geometry" />
        </mxCell>
        <mxCell id="ndV3JWdsCVKpFoXk2zZ--249" value="" style="rounded=0;whiteSpace=wrap;html=1;" parent="1" vertex="1">
          <mxGeometry x="155" y="816" width="85" height="164" as="geometry" />
        </mxCell>
        <mxCell id="ndV3JWdsCVKpFoXk2zZ--256" value="Save job 2" style="rounded=0;whiteSpace=wrap;html=1;strokeColor=none;fillColor=none;" parent="1" vertex="1">
          <mxGeometry x="-8.75" y="885" width="67.5" height="30" as="geometry" />
        </mxCell>
        <mxCell id="ndV3JWdsCVKpFoXk2zZ--257" value="C:/test" style="rounded=0;whiteSpace=wrap;html=1;strokeColor=none;fillColor=none;" parent="1" vertex="1">
          <mxGeometry x="78.75" y="885" width="67.5" height="30" as="geometry" />
        </mxCell>
        <mxCell id="ndV3JWdsCVKpFoXk2zZ--258" value="C:/test2" style="rounded=0;whiteSpace=wrap;html=1;strokeColor=none;fillColor=none;" parent="1" vertex="1">
          <mxGeometry x="163.75" y="885" width="67.5" height="30" as="geometry" />
        </mxCell>
        <mxCell id="ndV3JWdsCVKpFoXk2zZ--263" value="" style="endArrow=none;html=1;rounded=0;entryX=1;entryY=1;entryDx=0;entryDy=0;" parent="1" edge="1">
          <mxGeometry width="50" height="50" relative="1" as="geometry">
            <mxPoint x="-20" y="925" as="sourcePoint" />
            <mxPoint x="317" y="925" as="targetPoint" />
          </mxGeometry>
        </mxCell>
        <mxCell id="ndV3JWdsCVKpFoXk2zZ--337" style="edgeStyle=orthogonalEdgeStyle;rounded=0;orthogonalLoop=1;jettySize=auto;html=1;exitX=0.5;exitY=1;exitDx=0;exitDy=0;entryX=0.5;entryY=0;entryDx=0;entryDy=0;" parent="1" source="ndV3JWdsCVKpFoXk2zZ--4" target="ndV3JWdsCVKpFoXk2zZ--22" edge="1">
          <mxGeometry relative="1" as="geometry" />
        </mxCell>
        <mxCell id="ndV3JWdsCVKpFoXk2zZ--338" style="edgeStyle=orthogonalEdgeStyle;rounded=0;orthogonalLoop=1;jettySize=auto;html=1;exitX=0.5;exitY=1;exitDx=0;exitDy=0;entryX=0.5;entryY=0;entryDx=0;entryDy=0;" parent="1" source="ndV3JWdsCVKpFoXk2zZ--4" target="ndV3JWdsCVKpFoXk2zZ--152" edge="1">
          <mxGeometry relative="1" as="geometry" />
        </mxCell>
        <mxCell id="ndV3JWdsCVKpFoXk2zZ--339" style="edgeStyle=orthogonalEdgeStyle;rounded=0;orthogonalLoop=1;jettySize=auto;html=1;" parent="1" source="ndV3JWdsCVKpFoXk2zZ--4" target="ndV3JWdsCVKpFoXk2zZ--241" edge="1">
          <mxGeometry relative="1" as="geometry" />
        </mxCell>
        <mxCell id="ndV3JWdsCVKpFoXk2zZ--340" style="edgeStyle=orthogonalEdgeStyle;rounded=0;orthogonalLoop=1;jettySize=auto;html=1;exitX=0.5;exitY=1;exitDx=0;exitDy=0;" parent="1" source="ndV3JWdsCVKpFoXk2zZ--4" target="ndV3JWdsCVKpFoXk2zZ--119" edge="1">
          <mxGeometry relative="1" as="geometry" />
        </mxCell>
        <mxCell id="ndV3JWdsCVKpFoXk2zZ--341" style="edgeStyle=orthogonalEdgeStyle;rounded=0;orthogonalLoop=1;jettySize=auto;html=1;exitX=0.5;exitY=1;exitDx=0;exitDy=0;" parent="1" source="ndV3JWdsCVKpFoXk2zZ--4" target="ndV3JWdsCVKpFoXk2zZ--303" edge="1">
          <mxGeometry relative="1" as="geometry" />
        </mxCell>
        <mxCell id="ndV3JWdsCVKpFoXk2zZ--4" value="" style="rounded=0;whiteSpace=wrap;html=1;" parent="1" vertex="1">
          <mxGeometry x="-236.25" y="50" width="610" height="290" as="geometry" />
        </mxCell>
        <mxCell id="NSSNdUl1MLXboPLtLDol-12" value="" style="whiteSpace=wrap;html=1;aspect=fixed;" parent="1" vertex="1">
          <mxGeometry x="1170.5" y="1253.5" width="376.5" height="376.5" as="geometry" />
        </mxCell>
        <mxCell id="NSSNdUl1MLXboPLtLDol-3" value="&lt;font style=&quot;font-size: 25px;&quot;&gt;EASYSAVE&lt;/font&gt;" style="text;html=1;strokeColor=none;fillColor=none;align=center;verticalAlign=middle;whiteSpace=wrap;rounded=0;" parent="1" vertex="1">
          <mxGeometry x="-238.75" y="80" width="180" height="30" as="geometry" />
        </mxCell>
        <mxCell id="NSSNdUl1MLXboPLtLDol-23" value="&lt;font style=&quot;font-size: 22px;&quot;&gt;Settings&lt;/font&gt;" style="text;html=1;strokeColor=none;fillColor=none;align=center;verticalAlign=middle;whiteSpace=wrap;rounded=0;" parent="1" vertex="1">
          <mxGeometry x="1173.75" y="1268.5" width="130" height="30" as="geometry" />
        </mxCell>
        <mxCell id="NSSNdUl1MLXboPLtLDol-24" style="edgeStyle=orthogonalEdgeStyle;rounded=0;orthogonalLoop=1;jettySize=auto;html=1;exitX=0.5;exitY=1;exitDx=0;exitDy=0;" parent="1" edge="1">
          <mxGeometry relative="1" as="geometry">
            <mxPoint x="-513.75" y="1341" as="sourcePoint" />
            <mxPoint x="-513.75" y="1341" as="targetPoint" />
          </mxGeometry>
        </mxCell>
        <mxCell id="NSSNdUl1MLXboPLtLDol-28" value="&lt;font style=&quot;font-size: 17px;&quot;&gt;Language :&lt;/font&gt;" style="text;html=1;strokeColor=none;fillColor=none;align=center;verticalAlign=middle;whiteSpace=wrap;rounded=0;" parent="1" vertex="1">
          <mxGeometry x="1155" y="1318" width="200" height="30" as="geometry" />
        </mxCell>
        <mxCell id="NSSNdUl1MLXboPLtLDol-55" value="(text zone)&lt;div&gt;&lt;br/&gt;&lt;/div&gt;" style="rounded=0;whiteSpace=wrap;html=1;align=left;" parent="1" vertex="1">
          <mxGeometry x="1215.63" y="1477" width="120" height="73" as="geometry" />
        </mxCell>
        <mxCell id="NSSNdUl1MLXboPLtLDol-74" value="Close" style="rounded=0;whiteSpace=wrap;html=1;" parent="1" vertex="1">
          <mxGeometry x="1490" y="1264" width="40" height="20" as="geometry" />
        </mxCell>
        <mxCell id="NSSNdUl1MLXboPLtLDol-185" value="Execute savejob(s)" style="rounded=0;whiteSpace=wrap;html=1;" parent="1" vertex="1">
          <mxGeometry x="-223.75" y="130" width="200" height="30" as="geometry" />
        </mxCell>
        <mxCell id="NSSNdUl1MLXboPLtLDol-186" value="Create save job" style="rounded=0;whiteSpace=wrap;html=1;" parent="1" vertex="1">
          <mxGeometry x="-223.75" y="170" width="200" height="30" as="geometry" />
        </mxCell>
        <mxCell id="NSSNdUl1MLXboPLtLDol-187" value="Update save job" style="rounded=0;whiteSpace=wrap;html=1;" parent="1" vertex="1">
          <mxGeometry x="-223.75" y="210" width="200" height="30" as="geometry" />
        </mxCell>
        <mxCell id="NSSNdUl1MLXboPLtLDol-188" value="Delete save job" style="rounded=0;whiteSpace=wrap;html=1;" parent="1" vertex="1">
          <mxGeometry x="-223.75" y="250" width="200" height="30" as="geometry" />
        </mxCell>
        <mxCell id="NSSNdUl1MLXboPLtLDol-189" value="Settings" style="rounded=0;whiteSpace=wrap;html=1;" parent="1" vertex="1">
          <mxGeometry x="-223.75" y="290" width="200" height="30" as="geometry" />
        </mxCell>
        <mxCell id="ndV3JWdsCVKpFoXk2zZ--2" value="&lt;font style=&quot;font-size: 17px;&quot;&gt;Log format :&lt;/font&gt;" style="text;html=1;strokeColor=none;fillColor=none;align=center;verticalAlign=middle;whiteSpace=wrap;rounded=0;" parent="1" vertex="1">
          <mxGeometry x="1310" y="1318" width="200" height="30" as="geometry" />
        </mxCell>
        <mxCell id="ndV3JWdsCVKpFoXk2zZ--5" value="Name" style="rounded=0;whiteSpace=wrap;html=1;" parent="1" vertex="1">
          <mxGeometry x="13.75" y="130" width="90" height="30" as="geometry" />
        </mxCell>
        <mxCell id="ndV3JWdsCVKpFoXk2zZ--7" value="Source" style="rounded=0;whiteSpace=wrap;html=1;" parent="1" vertex="1">
          <mxGeometry x="103.75" y="130" width="85" height="30" as="geometry" />
        </mxCell>
        <mxCell id="ndV3JWdsCVKpFoXk2zZ--9" value="Destination" style="rounded=0;whiteSpace=wrap;html=1;" parent="1" vertex="1">
          <mxGeometry x="188.75" y="130" width="85" height="30" as="geometry" />
        </mxCell>
        <mxCell id="ndV3JWdsCVKpFoXk2zZ--10" value="Type" style="rounded=0;whiteSpace=wrap;html=1;" parent="1" vertex="1">
          <mxGeometry x="273.75" y="130" width="85" height="30" as="geometry" />
        </mxCell>
        <mxCell id="ndV3JWdsCVKpFoXk2zZ--13" value="" style="rounded=0;whiteSpace=wrap;html=1;" parent="1" vertex="1">
          <mxGeometry x="13.75" y="160" width="345" height="160" as="geometry" />
        </mxCell>
        <mxCell id="ndV3JWdsCVKpFoXk2zZ--17" value="" style="rounded=0;whiteSpace=wrap;html=1;" parent="1" vertex="1">
          <mxGeometry x="103.75" y="160" width="85" height="160" as="geometry" />
        </mxCell>
        <mxCell id="ndV3JWdsCVKpFoXk2zZ--18" value="" style="rounded=0;whiteSpace=wrap;html=1;" parent="1" vertex="1">
          <mxGeometry x="188.75" y="160" width="85" height="160" as="geometry" />
        </mxCell>
        <mxCell id="ndV3JWdsCVKpFoXk2zZ--22" value="" style="rounded=0;whiteSpace=wrap;html=1;" parent="1" vertex="1">
          <mxGeometry x="-1562.5" y="700" width="520" height="320" as="geometry" />
        </mxCell>
        <mxCell id="ndV3JWdsCVKpFoXk2zZ--23" value="&lt;font style=&quot;font-size: 22px;&quot;&gt;Launch save job&lt;/font&gt;" style="text;html=1;strokeColor=none;fillColor=none;align=center;verticalAlign=middle;whiteSpace=wrap;rounded=0;" parent="1" vertex="1">
          <mxGeometry x="-1552.5" y="715" width="180" height="30" as="geometry" />
        </mxCell>
        <mxCell id="ndV3JWdsCVKpFoXk2zZ--24" value="Launch save job" style="rounded=0;whiteSpace=wrap;html=1;fillColor=#dae8fc;strokeColor=#6c8ebf;" parent="1" vertex="1">
          <mxGeometry x="-1552.5" y="786" width="150" height="30" as="geometry" />
        </mxCell>
        <mxCell id="ndV3JWdsCVKpFoXk2zZ--29" value="Name" style="rounded=0;whiteSpace=wrap;html=1;" parent="1" vertex="1">
          <mxGeometry x="-1390" y="786" width="90" height="30" as="geometry" />
        </mxCell>
        <mxCell id="ndV3JWdsCVKpFoXk2zZ--30" value="Source" style="rounded=0;whiteSpace=wrap;html=1;" parent="1" vertex="1">
          <mxGeometry x="-1300" y="786" width="85" height="30" as="geometry" />
        </mxCell>
        <mxCell id="ndV3JWdsCVKpFoXk2zZ--31" value="Destination" style="rounded=0;whiteSpace=wrap;html=1;" parent="1" vertex="1">
          <mxGeometry x="-1215" y="786" width="85" height="30" as="geometry" />
        </mxCell>
        <mxCell id="ndV3JWdsCVKpFoXk2zZ--32" value="Type" style="rounded=0;whiteSpace=wrap;html=1;" parent="1" vertex="1">
          <mxGeometry x="-1130" y="786" width="77.5" height="30" as="geometry" />
        </mxCell>
        <mxCell id="ndV3JWdsCVKpFoXk2zZ--33" value="&#xa;&lt;span style=&quot;color: rgb(0, 0, 0); font-family: Helvetica; font-size: 12px; font-style: normal; font-variant-ligatures: normal; font-variant-caps: normal; font-weight: 400; letter-spacing: normal; orphans: 2; text-align: center; text-indent: 0px; text-transform: none; widows: 2; word-spacing: 0px; -webkit-text-stroke-width: 0px; background-color: rgb(251, 251, 251); text-decoration-thickness: initial; text-decoration-style: initial; text-decoration-color: initial; float: none; display: inline !important;&quot;&gt;Save job 1&lt;/span&gt;&#xa;&#xa;" style="rounded=0;whiteSpace=wrap;html=1;" parent="1" vertex="1">
          <mxGeometry x="-1390" y="816" width="337.5" height="164" as="geometry" />
        </mxCell>
        <mxCell id="ndV3JWdsCVKpFoXk2zZ--34" value="" style="rounded=0;whiteSpace=wrap;html=1;" parent="1" vertex="1">
          <mxGeometry x="-1300" y="816" width="85" height="164" as="geometry" />
        </mxCell>
        <mxCell id="ndV3JWdsCVKpFoXk2zZ--35" value="" style="rounded=0;whiteSpace=wrap;html=1;" parent="1" vertex="1">
          <mxGeometry x="-1215" y="816" width="85" height="164" as="geometry" />
        </mxCell>
        <mxCell id="ndV3JWdsCVKpFoXk2zZ--44" value="" style="rounded=0;whiteSpace=wrap;html=1;strokeColor=none;fillColor=#dae8fc;" parent="1" vertex="1">
          <mxGeometry x="-1390" y="816" width="337.5" height="60" as="geometry" />
        </mxCell>
        <mxCell id="ndV3JWdsCVKpFoXk2zZ--37" value="Save job 1" style="rounded=0;whiteSpace=wrap;html=1;strokeColor=none;fillColor=none;" parent="1" vertex="1">
          <mxGeometry x="-1378.75" y="831" width="67.5" height="30" as="geometry" />
        </mxCell>
        <mxCell id="ndV3JWdsCVKpFoXk2zZ--38" value="C:/test" style="rounded=0;whiteSpace=wrap;html=1;strokeColor=none;fillColor=none;" parent="1" vertex="1">
          <mxGeometry x="-1291.25" y="831" width="67.5" height="30" as="geometry" />
        </mxCell>
        <mxCell id="ndV3JWdsCVKpFoXk2zZ--39" value="C:/test2" style="rounded=0;whiteSpace=wrap;html=1;strokeColor=none;fillColor=none;" parent="1" vertex="1">
          <mxGeometry x="-1206.25" y="831" width="67.5" height="30" as="geometry" />
        </mxCell>
        <mxCell id="ndV3JWdsCVKpFoXk2zZ--41" value="Full save" style="rounded=0;whiteSpace=wrap;html=1;strokeColor=none;fillColor=none;" parent="1" vertex="1">
          <mxGeometry x="-1125" y="831" width="67.5" height="30" as="geometry" />
        </mxCell>
        <mxCell id="ndV3JWdsCVKpFoXk2zZ--45" value="" style="endArrow=none;html=1;rounded=0;exitX=0.267;exitY=0;exitDx=0;exitDy=0;exitPerimeter=0;" parent="1" source="ndV3JWdsCVKpFoXk2zZ--44" edge="1">
          <mxGeometry width="50" height="50" relative="1" as="geometry">
            <mxPoint x="-1352.5" y="898.5" as="sourcePoint" />
            <mxPoint x="-1300" y="892.8050847457625" as="targetPoint" />
          </mxGeometry>
        </mxCell>
        <mxCell id="ndV3JWdsCVKpFoXk2zZ--51" value="" style="endArrow=none;html=1;rounded=0;exitX=0;exitY=0;exitDx=0;exitDy=0;entryX=0;entryY=0.385;entryDx=0;entryDy=0;entryPerimeter=0;" parent="1" source="ndV3JWdsCVKpFoXk2zZ--44" target="ndV3JWdsCVKpFoXk2zZ--33" edge="1">
          <mxGeometry width="50" height="50" relative="1" as="geometry">
            <mxPoint x="-1289.5" y="826" as="sourcePoint" />
            <mxPoint x="-1290" y="902.8050847457625" as="targetPoint" />
          </mxGeometry>
        </mxCell>
        <mxCell id="ndV3JWdsCVKpFoXk2zZ--52" value="Save job 2" style="rounded=0;whiteSpace=wrap;html=1;strokeColor=none;fillColor=none;" parent="1" vertex="1">
          <mxGeometry x="-1378.75" y="885" width="67.5" height="30" as="geometry" />
        </mxCell>
        <mxCell id="ndV3JWdsCVKpFoXk2zZ--53" value="C:/test" style="rounded=0;whiteSpace=wrap;html=1;strokeColor=none;fillColor=none;" parent="1" vertex="1">
          <mxGeometry x="-1291.25" y="885" width="67.5" height="30" as="geometry" />
        </mxCell>
        <mxCell id="ndV3JWdsCVKpFoXk2zZ--54" value="C:/test2" style="rounded=0;whiteSpace=wrap;html=1;strokeColor=none;fillColor=none;" parent="1" vertex="1">
          <mxGeometry x="-1206.25" y="885" width="67.5" height="30" as="geometry" />
        </mxCell>
        <mxCell id="ndV3JWdsCVKpFoXk2zZ--55" value="Differential save" style="rounded=0;whiteSpace=wrap;html=1;strokeColor=none;fillColor=none;" parent="1" vertex="1">
          <mxGeometry x="-1125" y="885" width="67.5" height="30" as="geometry" />
        </mxCell>
        <mxCell id="ndV3JWdsCVKpFoXk2zZ--56" value="" style="endArrow=none;html=1;rounded=0;exitX=0.267;exitY=0;exitDx=0;exitDy=0;exitPerimeter=0;entryX=0.001;entryY=0.384;entryDx=0;entryDy=0;entryPerimeter=0;" parent="1" target="ndV3JWdsCVKpFoXk2zZ--35" edge="1">
          <mxGeometry width="50" height="50" relative="1" as="geometry">
            <mxPoint x="-1215" y="812.5999999999999" as="sourcePoint" />
            <mxPoint x="-1215.5" y="889.4050847457627" as="targetPoint" />
          </mxGeometry>
        </mxCell>
        <mxCell id="ndV3JWdsCVKpFoXk2zZ--57" value="" style="endArrow=none;html=1;rounded=0;entryX=1;entryY=1;entryDx=0;entryDy=0;" parent="1" target="ndV3JWdsCVKpFoXk2zZ--44" edge="1">
          <mxGeometry width="50" height="50" relative="1" as="geometry">
            <mxPoint x="-1390" y="876" as="sourcePoint" />
            <mxPoint x="-1280" y="912.8050847457625" as="targetPoint" />
          </mxGeometry>
        </mxCell>
        <mxCell id="ndV3JWdsCVKpFoXk2zZ--58" value="" style="endArrow=none;html=1;rounded=0;exitX=0.267;exitY=0;exitDx=0;exitDy=0;exitPerimeter=0;entryX=0.999;entryY=0.382;entryDx=0;entryDy=0;entryPerimeter=0;" parent="1" target="ndV3JWdsCVKpFoXk2zZ--35" edge="1">
          <mxGeometry width="50" height="50" relative="1" as="geometry">
            <mxPoint x="-1130" y="812.5999999999999" as="sourcePoint" />
            <mxPoint x="-1130.5" y="889.4050847457627" as="targetPoint" />
          </mxGeometry>
        </mxCell>
        <mxCell id="ndV3JWdsCVKpFoXk2zZ--59" value="" style="endArrow=none;html=1;rounded=0;entryX=1;entryY=1;entryDx=0;entryDy=0;exitX=0.003;exitY=0.657;exitDx=0;exitDy=0;exitPerimeter=0;" parent="1" source="ndV3JWdsCVKpFoXk2zZ--33" edge="1">
          <mxGeometry width="50" height="50" relative="1" as="geometry">
            <mxPoint x="-1392.5" y="925" as="sourcePoint" />
            <mxPoint x="-1053" y="925" as="targetPoint" />
          </mxGeometry>
        </mxCell>
        <mxCell id="ndV3JWdsCVKpFoXk2zZ--114" value="Create save job" style="rounded=0;whiteSpace=wrap;html=1;" parent="1" vertex="1">
          <mxGeometry x="-1552.5" y="825" width="150" height="30" as="geometry" />
        </mxCell>
        <mxCell id="ndV3JWdsCVKpFoXk2zZ--115" value="Update save job" style="rounded=0;whiteSpace=wrap;html=1;" parent="1" vertex="1">
          <mxGeometry x="-1552.5" y="865" width="150" height="30" as="geometry" />
        </mxCell>
        <mxCell id="ndV3JWdsCVKpFoXk2zZ--116" value="Delete save job" style="rounded=0;whiteSpace=wrap;html=1;" parent="1" vertex="1">
          <mxGeometry x="-1552.5" y="911" width="150" height="30" as="geometry" />
        </mxCell>
        <mxCell id="ndV3JWdsCVKpFoXk2zZ--118" value="Settings" style="rounded=0;whiteSpace=wrap;html=1;" parent="1" vertex="1">
          <mxGeometry x="-1552.5" y="951" width="150" height="30" as="geometry" />
        </mxCell>
        <mxCell id="ndV3JWdsCVKpFoXk2zZ--119" value="" style="rounded=0;whiteSpace=wrap;html=1;" parent="1" vertex="1">
          <mxGeometry x="457.5" y="700" width="520" height="320" as="geometry" />
        </mxCell>
        <mxCell id="ndV3JWdsCVKpFoXk2zZ--120" value="&lt;font style=&quot;font-size: 22px;&quot;&gt;Delete save job&lt;/font&gt;" style="text;html=1;strokeColor=none;fillColor=none;align=center;verticalAlign=middle;whiteSpace=wrap;rounded=0;" parent="1" vertex="1">
          <mxGeometry x="467.5" y="715" width="180" height="30" as="geometry" />
        </mxCell>
        <mxCell id="ndV3JWdsCVKpFoXk2zZ--122" value="Name" style="rounded=0;whiteSpace=wrap;html=1;" parent="1" vertex="1">
          <mxGeometry x="630" y="786" width="90" height="30" as="geometry" />
        </mxCell>
        <mxCell id="ndV3JWdsCVKpFoXk2zZ--123" value="Source" style="rounded=0;whiteSpace=wrap;html=1;" parent="1" vertex="1">
          <mxGeometry x="720" y="786" width="85" height="30" as="geometry" />
        </mxCell>
        <mxCell id="ndV3JWdsCVKpFoXk2zZ--124" value="Destination" style="rounded=0;whiteSpace=wrap;html=1;" parent="1" vertex="1">
          <mxGeometry x="805" y="786" width="85" height="30" as="geometry" />
        </mxCell>
        <mxCell id="ndV3JWdsCVKpFoXk2zZ--125" value="Type" style="rounded=0;whiteSpace=wrap;html=1;" parent="1" vertex="1">
          <mxGeometry x="890" y="786" width="77.5" height="30" as="geometry" />
        </mxCell>
        <mxCell id="ndV3JWdsCVKpFoXk2zZ--126" value="&#xa;&lt;span style=&quot;color: rgb(0, 0, 0); font-family: Helvetica; font-size: 12px; font-style: normal; font-variant-ligatures: normal; font-variant-caps: normal; font-weight: 400; letter-spacing: normal; orphans: 2; text-align: center; text-indent: 0px; text-transform: none; widows: 2; word-spacing: 0px; -webkit-text-stroke-width: 0px; background-color: rgb(251, 251, 251); text-decoration-thickness: initial; text-decoration-style: initial; text-decoration-color: initial; float: none; display: inline !important;&quot;&gt;Save job 1&lt;/span&gt;&#xa;&#xa;" style="rounded=0;whiteSpace=wrap;html=1;" parent="1" vertex="1">
          <mxGeometry x="630" y="816" width="337.5" height="164" as="geometry" />
        </mxCell>
        <mxCell id="ndV3JWdsCVKpFoXk2zZ--127" value="" style="rounded=0;whiteSpace=wrap;html=1;" parent="1" vertex="1">
          <mxGeometry x="720" y="816" width="85" height="164" as="geometry" />
        </mxCell>
        <mxCell id="ndV3JWdsCVKpFoXk2zZ--128" value="" style="rounded=0;whiteSpace=wrap;html=1;" parent="1" vertex="1">
          <mxGeometry x="805" y="816" width="85" height="164" as="geometry" />
        </mxCell>
        <mxCell id="ndV3JWdsCVKpFoXk2zZ--129" value="" style="rounded=0;whiteSpace=wrap;html=1;strokeColor=none;fillColor=#dae8fc;" parent="1" vertex="1">
          <mxGeometry x="630" y="816" width="337.5" height="60" as="geometry" />
        </mxCell>
        <mxCell id="ndV3JWdsCVKpFoXk2zZ--130" value="Save job 1" style="rounded=0;whiteSpace=wrap;html=1;strokeColor=none;fillColor=none;" parent="1" vertex="1">
          <mxGeometry x="641.25" y="831" width="67.5" height="30" as="geometry" />
        </mxCell>
        <mxCell id="ndV3JWdsCVKpFoXk2zZ--131" value="C:/test" style="rounded=0;whiteSpace=wrap;html=1;strokeColor=none;fillColor=none;" parent="1" vertex="1">
          <mxGeometry x="728.75" y="831" width="67.5" height="30" as="geometry" />
        </mxCell>
        <mxCell id="ndV3JWdsCVKpFoXk2zZ--132" value="C:/test2" style="rounded=0;whiteSpace=wrap;html=1;strokeColor=none;fillColor=none;" parent="1" vertex="1">
          <mxGeometry x="813.75" y="831" width="67.5" height="30" as="geometry" />
        </mxCell>
        <mxCell id="ndV3JWdsCVKpFoXk2zZ--133" value="Full save" style="rounded=0;whiteSpace=wrap;html=1;strokeColor=none;fillColor=none;" parent="1" vertex="1">
          <mxGeometry x="895" y="831" width="67.5" height="30" as="geometry" />
        </mxCell>
        <mxCell id="ndV3JWdsCVKpFoXk2zZ--134" value="" style="endArrow=none;html=1;rounded=0;exitX=0.267;exitY=0;exitDx=0;exitDy=0;exitPerimeter=0;" parent="1" source="ndV3JWdsCVKpFoXk2zZ--129" edge="1">
          <mxGeometry width="50" height="50" relative="1" as="geometry">
            <mxPoint x="667.5" y="898.5" as="sourcePoint" />
            <mxPoint x="720" y="892.8050847457625" as="targetPoint" />
          </mxGeometry>
        </mxCell>
        <mxCell id="ndV3JWdsCVKpFoXk2zZ--135" value="" style="endArrow=none;html=1;rounded=0;exitX=0;exitY=0;exitDx=0;exitDy=0;entryX=0;entryY=0.385;entryDx=0;entryDy=0;entryPerimeter=0;" parent="1" source="ndV3JWdsCVKpFoXk2zZ--129" target="ndV3JWdsCVKpFoXk2zZ--126" edge="1">
          <mxGeometry width="50" height="50" relative="1" as="geometry">
            <mxPoint x="730.5" y="826" as="sourcePoint" />
            <mxPoint x="730" y="902.8050847457625" as="targetPoint" />
          </mxGeometry>
        </mxCell>
        <mxCell id="ndV3JWdsCVKpFoXk2zZ--136" value="Save job 2" style="rounded=0;whiteSpace=wrap;html=1;strokeColor=none;fillColor=none;" parent="1" vertex="1">
          <mxGeometry x="641.25" y="885" width="67.5" height="30" as="geometry" />
        </mxCell>
        <mxCell id="ndV3JWdsCVKpFoXk2zZ--137" value="C:/test" style="rounded=0;whiteSpace=wrap;html=1;strokeColor=none;fillColor=none;" parent="1" vertex="1">
          <mxGeometry x="728.75" y="885" width="67.5" height="30" as="geometry" />
        </mxCell>
        <mxCell id="ndV3JWdsCVKpFoXk2zZ--138" value="C:/test2" style="rounded=0;whiteSpace=wrap;html=1;strokeColor=none;fillColor=none;" parent="1" vertex="1">
          <mxGeometry x="813.75" y="885" width="67.5" height="30" as="geometry" />
        </mxCell>
        <mxCell id="ndV3JWdsCVKpFoXk2zZ--139" value="Differential save" style="rounded=0;whiteSpace=wrap;html=1;strokeColor=none;fillColor=none;" parent="1" vertex="1">
          <mxGeometry x="895" y="885" width="67.5" height="30" as="geometry" />
        </mxCell>
        <mxCell id="ndV3JWdsCVKpFoXk2zZ--140" value="" style="endArrow=none;html=1;rounded=0;exitX=0.267;exitY=0;exitDx=0;exitDy=0;exitPerimeter=0;entryX=0.001;entryY=0.384;entryDx=0;entryDy=0;entryPerimeter=0;" parent="1" target="ndV3JWdsCVKpFoXk2zZ--128" edge="1">
          <mxGeometry width="50" height="50" relative="1" as="geometry">
            <mxPoint x="805" y="812.5999999999999" as="sourcePoint" />
            <mxPoint x="804.5" y="889.4050847457627" as="targetPoint" />
          </mxGeometry>
        </mxCell>
        <mxCell id="ndV3JWdsCVKpFoXk2zZ--141" value="" style="endArrow=none;html=1;rounded=0;entryX=1;entryY=1;entryDx=0;entryDy=0;" parent="1" target="ndV3JWdsCVKpFoXk2zZ--129" edge="1">
          <mxGeometry width="50" height="50" relative="1" as="geometry">
            <mxPoint x="630" y="876" as="sourcePoint" />
            <mxPoint x="740" y="912.8050847457625" as="targetPoint" />
          </mxGeometry>
        </mxCell>
        <mxCell id="ndV3JWdsCVKpFoXk2zZ--142" value="" style="endArrow=none;html=1;rounded=0;exitX=0.267;exitY=0;exitDx=0;exitDy=0;exitPerimeter=0;entryX=0.999;entryY=0.382;entryDx=0;entryDy=0;entryPerimeter=0;" parent="1" target="ndV3JWdsCVKpFoXk2zZ--128" edge="1">
          <mxGeometry width="50" height="50" relative="1" as="geometry">
            <mxPoint x="890" y="812.5999999999999" as="sourcePoint" />
            <mxPoint x="889.5" y="889.4050847457627" as="targetPoint" />
          </mxGeometry>
        </mxCell>
        <mxCell id="ndV3JWdsCVKpFoXk2zZ--143" value="" style="endArrow=none;html=1;rounded=0;entryX=1;entryY=1;entryDx=0;entryDy=0;exitX=0.003;exitY=0.669;exitDx=0;exitDy=0;exitPerimeter=0;" parent="1" source="ndV3JWdsCVKpFoXk2zZ--126" edge="1">
          <mxGeometry width="50" height="50" relative="1" as="geometry">
            <mxPoint x="627.5" y="925" as="sourcePoint" />
            <mxPoint x="967" y="925" as="targetPoint" />
          </mxGeometry>
        </mxCell>
        <mxCell id="ndV3JWdsCVKpFoXk2zZ--144" value="Create save job" style="rounded=0;whiteSpace=wrap;html=1;" parent="1" vertex="1">
          <mxGeometry x="467.5" y="825" width="150" height="30" as="geometry" />
        </mxCell>
        <mxCell id="ndV3JWdsCVKpFoXk2zZ--145" value="Update save job" style="rounded=0;whiteSpace=wrap;html=1;" parent="1" vertex="1">
          <mxGeometry x="467.5" y="865" width="150" height="30" as="geometry" />
        </mxCell>
        <mxCell id="ndV3JWdsCVKpFoXk2zZ--146" value="Delete save job" style="rounded=0;whiteSpace=wrap;html=1;fillColor=#dae8fc;strokeColor=#6c8ebf;" parent="1" vertex="1">
          <mxGeometry x="467.5" y="911" width="150" height="30" as="geometry" />
        </mxCell>
        <mxCell id="ndV3JWdsCVKpFoXk2zZ--147" value="Settings" style="rounded=0;whiteSpace=wrap;html=1;" parent="1" vertex="1">
          <mxGeometry x="467.5" y="951" width="150" height="30" as="geometry" />
        </mxCell>
        <mxCell id="ndV3JWdsCVKpFoXk2zZ--148" value="Launch save job" style="rounded=0;whiteSpace=wrap;html=1;" parent="1" vertex="1">
          <mxGeometry x="467.5" y="786" width="150" height="30" as="geometry" />
        </mxCell>
        <mxCell id="ndV3JWdsCVKpFoXk2zZ--149" value="Close" style="rounded=0;whiteSpace=wrap;html=1;" parent="1" vertex="1">
          <mxGeometry x="-1097.5" y="715" width="40" height="20" as="geometry" />
        </mxCell>
        <mxCell id="ndV3JWdsCVKpFoXk2zZ--150" value="Close" style="rounded=0;whiteSpace=wrap;html=1;" parent="1" vertex="1">
          <mxGeometry x="927.5" y="715" width="40" height="20" as="geometry" />
        </mxCell>
        <mxCell id="ndV3JWdsCVKpFoXk2zZ--151" value="Close" style="rounded=0;whiteSpace=wrap;html=1;" parent="1" vertex="1">
          <mxGeometry x="324.5" y="60" width="40" height="20" as="geometry" />
        </mxCell>
        <mxCell id="ndV3JWdsCVKpFoXk2zZ--152" value="" style="rounded=0;whiteSpace=wrap;html=1;" parent="1" vertex="1">
          <mxGeometry x="-852.5" y="700" width="520" height="320" as="geometry" />
        </mxCell>
        <mxCell id="ndV3JWdsCVKpFoXk2zZ--153" value="&lt;font style=&quot;font-size: 22px;&quot;&gt;Create save job&lt;/font&gt;" style="text;html=1;strokeColor=none;fillColor=none;align=center;verticalAlign=middle;whiteSpace=wrap;rounded=0;" parent="1" vertex="1">
          <mxGeometry x="-842.5" y="715" width="180" height="30" as="geometry" />
        </mxCell>
        <mxCell id="ndV3JWdsCVKpFoXk2zZ--155" value="Name" style="rounded=0;whiteSpace=wrap;html=1;" parent="1" vertex="1">
          <mxGeometry x="-680" y="786" width="90" height="30" as="geometry" />
        </mxCell>
        <mxCell id="ndV3JWdsCVKpFoXk2zZ--156" value="Source" style="rounded=0;whiteSpace=wrap;html=1;" parent="1" vertex="1">
          <mxGeometry x="-590" y="786" width="85" height="30" as="geometry" />
        </mxCell>
        <mxCell id="ndV3JWdsCVKpFoXk2zZ--157" value="Destination" style="rounded=0;whiteSpace=wrap;html=1;" parent="1" vertex="1">
          <mxGeometry x="-505" y="786" width="85" height="30" as="geometry" />
        </mxCell>
        <mxCell id="ndV3JWdsCVKpFoXk2zZ--158" value="Type" style="rounded=0;whiteSpace=wrap;html=1;" parent="1" vertex="1">
          <mxGeometry x="-420" y="786" width="77.5" height="30" as="geometry" />
        </mxCell>
        <mxCell id="ndV3JWdsCVKpFoXk2zZ--159" value="&#xa;&lt;span style=&quot;color: rgb(0, 0, 0); font-family: Helvetica; font-size: 12px; font-style: normal; font-variant-ligatures: normal; font-variant-caps: normal; font-weight: 400; letter-spacing: normal; orphans: 2; text-align: center; text-indent: 0px; text-transform: none; widows: 2; word-spacing: 0px; -webkit-text-stroke-width: 0px; background-color: rgb(251, 251, 251); text-decoration-thickness: initial; text-decoration-style: initial; text-decoration-color: initial; float: none; display: inline !important;&quot;&gt;Save job 1&lt;/span&gt;&#xa;&#xa;" style="rounded=0;whiteSpace=wrap;html=1;" parent="1" vertex="1">
          <mxGeometry x="-680" y="816" width="337.5" height="164" as="geometry" />
        </mxCell>
        <mxCell id="ndV3JWdsCVKpFoXk2zZ--160" value="" style="rounded=0;whiteSpace=wrap;html=1;" parent="1" vertex="1">
          <mxGeometry x="-590" y="816" width="85" height="164" as="geometry" />
        </mxCell>
        <mxCell id="ndV3JWdsCVKpFoXk2zZ--161" value="" style="rounded=0;whiteSpace=wrap;html=1;" parent="1" vertex="1">
          <mxGeometry x="-505" y="816" width="85" height="164" as="geometry" />
        </mxCell>
        <mxCell id="ndV3JWdsCVKpFoXk2zZ--163" value="Save job 1" style="rounded=0;whiteSpace=wrap;html=1;strokeColor=none;fillColor=none;" parent="1" vertex="1">
          <mxGeometry x="-668.75" y="831" width="67.5" height="30" as="geometry" />
        </mxCell>
        <mxCell id="ndV3JWdsCVKpFoXk2zZ--164" value="C:/test" style="rounded=0;whiteSpace=wrap;html=1;strokeColor=none;fillColor=none;" parent="1" vertex="1">
          <mxGeometry x="-581.25" y="831" width="67.5" height="30" as="geometry" />
        </mxCell>
        <mxCell id="ndV3JWdsCVKpFoXk2zZ--165" value="C:/test2" style="rounded=0;whiteSpace=wrap;html=1;strokeColor=none;fillColor=none;" parent="1" vertex="1">
          <mxGeometry x="-496.25" y="831" width="67.5" height="30" as="geometry" />
        </mxCell>
        <mxCell id="ndV3JWdsCVKpFoXk2zZ--166" value="Full save" style="rounded=0;whiteSpace=wrap;html=1;strokeColor=none;fillColor=none;" parent="1" vertex="1">
          <mxGeometry x="-415" y="831" width="67.5" height="30" as="geometry" />
        </mxCell>
        <mxCell id="ndV3JWdsCVKpFoXk2zZ--167" value="" style="endArrow=none;html=1;rounded=0;exitX=0.267;exitY=0;exitDx=0;exitDy=0;exitPerimeter=0;" parent="1" edge="1">
          <mxGeometry width="50" height="50" relative="1" as="geometry">
            <mxPoint x="-589.8874999999998" y="816" as="sourcePoint" />
            <mxPoint x="-590" y="892.8050847457625" as="targetPoint" />
          </mxGeometry>
        </mxCell>
        <mxCell id="ndV3JWdsCVKpFoXk2zZ--168" value="" style="endArrow=none;html=1;rounded=0;exitX=0;exitY=0;exitDx=0;exitDy=0;entryX=0;entryY=0.385;entryDx=0;entryDy=0;entryPerimeter=0;" parent="1" target="ndV3JWdsCVKpFoXk2zZ--159" edge="1">
          <mxGeometry width="50" height="50" relative="1" as="geometry">
            <mxPoint x="-680.0000000000005" y="816" as="sourcePoint" />
            <mxPoint x="-580" y="902.8050847457625" as="targetPoint" />
          </mxGeometry>
        </mxCell>
        <mxCell id="ndV3JWdsCVKpFoXk2zZ--169" value="Save job 2" style="rounded=0;whiteSpace=wrap;html=1;strokeColor=none;fillColor=none;" parent="1" vertex="1">
          <mxGeometry x="-668.75" y="885" width="67.5" height="30" as="geometry" />
        </mxCell>
        <mxCell id="ndV3JWdsCVKpFoXk2zZ--170" value="C:/test" style="rounded=0;whiteSpace=wrap;html=1;strokeColor=none;fillColor=none;" parent="1" vertex="1">
          <mxGeometry x="-581.25" y="885" width="67.5" height="30" as="geometry" />
        </mxCell>
        <mxCell id="ndV3JWdsCVKpFoXk2zZ--171" value="C:/test2" style="rounded=0;whiteSpace=wrap;html=1;strokeColor=none;fillColor=none;" parent="1" vertex="1">
          <mxGeometry x="-496.25" y="885" width="67.5" height="30" as="geometry" />
        </mxCell>
        <mxCell id="ndV3JWdsCVKpFoXk2zZ--172" value="Differential save" style="rounded=0;whiteSpace=wrap;html=1;strokeColor=none;fillColor=none;" parent="1" vertex="1">
          <mxGeometry x="-415" y="885" width="67.5" height="30" as="geometry" />
        </mxCell>
        <mxCell id="ndV3JWdsCVKpFoXk2zZ--173" value="" style="endArrow=none;html=1;rounded=0;exitX=0.267;exitY=0;exitDx=0;exitDy=0;exitPerimeter=0;entryX=0.001;entryY=0.384;entryDx=0;entryDy=0;entryPerimeter=0;" parent="1" target="ndV3JWdsCVKpFoXk2zZ--161" edge="1">
          <mxGeometry width="50" height="50" relative="1" as="geometry">
            <mxPoint x="-505" y="812.5999999999999" as="sourcePoint" />
            <mxPoint x="-505.5" y="889.4050847457627" as="targetPoint" />
          </mxGeometry>
        </mxCell>
        <mxCell id="ndV3JWdsCVKpFoXk2zZ--174" value="" style="endArrow=none;html=1;rounded=0;entryX=1;entryY=1;entryDx=0;entryDy=0;" parent="1" edge="1">
          <mxGeometry width="50" height="50" relative="1" as="geometry">
            <mxPoint x="-680" y="876" as="sourcePoint" />
            <mxPoint x="-342.5" y="876" as="targetPoint" />
          </mxGeometry>
        </mxCell>
        <mxCell id="ndV3JWdsCVKpFoXk2zZ--175" value="" style="endArrow=none;html=1;rounded=0;exitX=0.267;exitY=0;exitDx=0;exitDy=0;exitPerimeter=0;entryX=0.999;entryY=0.382;entryDx=0;entryDy=0;entryPerimeter=0;" parent="1" target="ndV3JWdsCVKpFoXk2zZ--161" edge="1">
          <mxGeometry width="50" height="50" relative="1" as="geometry">
            <mxPoint x="-420" y="812.5999999999999" as="sourcePoint" />
            <mxPoint x="-420.5" y="889.4050847457627" as="targetPoint" />
          </mxGeometry>
        </mxCell>
        <mxCell id="ndV3JWdsCVKpFoXk2zZ--176" value="" style="endArrow=none;html=1;rounded=0;entryX=1;entryY=1;entryDx=0;entryDy=0;exitX=-0.002;exitY=0.664;exitDx=0;exitDy=0;exitPerimeter=0;" parent="1" source="ndV3JWdsCVKpFoXk2zZ--159" edge="1">
          <mxGeometry width="50" height="50" relative="1" as="geometry">
            <mxPoint x="-682.5" y="925" as="sourcePoint" />
            <mxPoint x="-343" y="925" as="targetPoint" />
          </mxGeometry>
        </mxCell>
        <mxCell id="ndV3JWdsCVKpFoXk2zZ--177" value="Create save job" style="rounded=0;whiteSpace=wrap;html=1;fillColor=#dae8fc;strokeColor=#6c8ebf;" parent="1" vertex="1">
          <mxGeometry x="-842.5" y="825" width="150" height="30" as="geometry" />
        </mxCell>
        <mxCell id="ndV3JWdsCVKpFoXk2zZ--178" value="Update save job" style="rounded=0;whiteSpace=wrap;html=1;" parent="1" vertex="1">
          <mxGeometry x="-842.5" y="865" width="150" height="30" as="geometry" />
        </mxCell>
        <mxCell id="ndV3JWdsCVKpFoXk2zZ--179" value="Delete save job" style="rounded=0;whiteSpace=wrap;html=1;" parent="1" vertex="1">
          <mxGeometry x="-842.5" y="911" width="150" height="30" as="geometry" />
        </mxCell>
        <mxCell id="ndV3JWdsCVKpFoXk2zZ--180" value="Settings" style="rounded=0;whiteSpace=wrap;html=1;" parent="1" vertex="1">
          <mxGeometry x="-842.5" y="951" width="150" height="30" as="geometry" />
        </mxCell>
        <mxCell id="ndV3JWdsCVKpFoXk2zZ--181" value="Close" style="rounded=0;whiteSpace=wrap;html=1;" parent="1" vertex="1">
          <mxGeometry x="-387.5" y="715" width="40" height="20" as="geometry" />
        </mxCell>
        <mxCell id="ndV3JWdsCVKpFoXk2zZ--182" value="Launch save job" style="rounded=0;whiteSpace=wrap;html=1;" parent="1" vertex="1">
          <mxGeometry x="-842.5" y="786" width="150" height="30" as="geometry" />
        </mxCell>
        <mxCell id="ndV3JWdsCVKpFoXk2zZ--242" value="&lt;font style=&quot;font-size: 22px;&quot;&gt;Update save job&lt;/font&gt;" style="text;html=1;strokeColor=none;fillColor=none;align=center;verticalAlign=middle;whiteSpace=wrap;rounded=0;" parent="1" vertex="1">
          <mxGeometry x="-182.5" y="715" width="180" height="30" as="geometry" />
        </mxCell>
        <mxCell id="ndV3JWdsCVKpFoXk2zZ--265" value="Update save job" style="rounded=0;whiteSpace=wrap;html=1;fillColor=#dae8fc;strokeColor=#6c8ebf;" parent="1" vertex="1">
          <mxGeometry x="-182.5" y="865" width="150" height="30" as="geometry" />
        </mxCell>
        <mxCell id="ndV3JWdsCVKpFoXk2zZ--266" value="Delete save job" style="rounded=0;whiteSpace=wrap;html=1;" parent="1" vertex="1">
          <mxGeometry x="-182.5" y="911" width="150" height="30" as="geometry" />
        </mxCell>
        <mxCell id="ndV3JWdsCVKpFoXk2zZ--267" value="Settings" style="rounded=0;whiteSpace=wrap;html=1;" parent="1" vertex="1">
          <mxGeometry x="-182.5" y="951" width="150" height="30" as="geometry" />
        </mxCell>
        <mxCell id="ndV3JWdsCVKpFoXk2zZ--268" value="Close" style="rounded=0;whiteSpace=wrap;html=1;" parent="1" vertex="1">
          <mxGeometry x="272.5" y="715" width="40" height="20" as="geometry" />
        </mxCell>
        <mxCell id="ndV3JWdsCVKpFoXk2zZ--269" value="Launch save job" style="rounded=0;whiteSpace=wrap;html=1;" parent="1" vertex="1">
          <mxGeometry x="-182.5" y="786" width="150" height="30" as="geometry" />
        </mxCell>
        <mxCell id="ndV3JWdsCVKpFoXk2zZ--272" value="Create save job" style="rounded=0;whiteSpace=wrap;html=1;" parent="1" vertex="1">
          <mxGeometry x="-182.5" y="825" width="150" height="30" as="geometry" />
        </mxCell>
        <mxCell id="ndV3JWdsCVKpFoXk2zZ--303" value="" style="rounded=0;whiteSpace=wrap;html=1;" parent="1" vertex="1">
          <mxGeometry x="1097.5" y="700" width="520" height="320" as="geometry" />
        </mxCell>
        <mxCell id="ndV3JWdsCVKpFoXk2zZ--304" value="&lt;font style=&quot;font-size: 22px;&quot;&gt;Settings&lt;/font&gt;" style="text;html=1;strokeColor=none;fillColor=none;align=center;verticalAlign=middle;whiteSpace=wrap;rounded=0;" parent="1" vertex="1">
          <mxGeometry x="1077.5" y="715" width="180" height="30" as="geometry" />
        </mxCell>
        <mxCell id="ndV3JWdsCVKpFoXk2zZ--305" value="Name" style="rounded=0;whiteSpace=wrap;html=1;" parent="1" vertex="1">
          <mxGeometry x="1270" y="786" width="90" height="30" as="geometry" />
        </mxCell>
        <mxCell id="ndV3JWdsCVKpFoXk2zZ--306" value="Source" style="rounded=0;whiteSpace=wrap;html=1;" parent="1" vertex="1">
          <mxGeometry x="1360" y="786" width="85" height="30" as="geometry" />
        </mxCell>
        <mxCell id="ndV3JWdsCVKpFoXk2zZ--307" value="Destination" style="rounded=0;whiteSpace=wrap;html=1;" parent="1" vertex="1">
          <mxGeometry x="1445" y="786" width="85" height="30" as="geometry" />
        </mxCell>
        <mxCell id="ndV3JWdsCVKpFoXk2zZ--308" value="Type" style="rounded=0;whiteSpace=wrap;html=1;" parent="1" vertex="1">
          <mxGeometry x="1530" y="786" width="77.5" height="30" as="geometry" />
        </mxCell>
        <mxCell id="ndV3JWdsCVKpFoXk2zZ--309" value="&#xa;&lt;span style=&quot;color: rgb(0, 0, 0); font-family: Helvetica; font-size: 12px; font-style: normal; font-variant-ligatures: normal; font-variant-caps: normal; font-weight: 400; letter-spacing: normal; orphans: 2; text-align: center; text-indent: 0px; text-transform: none; widows: 2; word-spacing: 0px; -webkit-text-stroke-width: 0px; background-color: rgb(251, 251, 251); text-decoration-thickness: initial; text-decoration-style: initial; text-decoration-color: initial; float: none; display: inline !important;&quot;&gt;Save job 1&lt;/span&gt;&#xa;&#xa;" style="rounded=0;whiteSpace=wrap;html=1;" parent="1" vertex="1">
          <mxGeometry x="1270" y="816" width="337.5" height="164" as="geometry" />
        </mxCell>
        <mxCell id="ndV3JWdsCVKpFoXk2zZ--310" value="" style="rounded=0;whiteSpace=wrap;html=1;" parent="1" vertex="1">
          <mxGeometry x="1360" y="816" width="85" height="164" as="geometry" />
        </mxCell>
        <mxCell id="ndV3JWdsCVKpFoXk2zZ--311" value="" style="rounded=0;whiteSpace=wrap;html=1;" parent="1" vertex="1">
          <mxGeometry x="1445" y="816" width="85" height="164" as="geometry" />
        </mxCell>
        <mxCell id="ndV3JWdsCVKpFoXk2zZ--312" value="Save job 1" style="rounded=0;whiteSpace=wrap;html=1;strokeColor=none;fillColor=none;" parent="1" vertex="1">
          <mxGeometry x="1281.25" y="831" width="67.5" height="30" as="geometry" />
        </mxCell>
        <mxCell id="ndV3JWdsCVKpFoXk2zZ--313" value="C:/test" style="rounded=0;whiteSpace=wrap;html=1;strokeColor=none;fillColor=none;" parent="1" vertex="1">
          <mxGeometry x="1368.75" y="831" width="67.5" height="30" as="geometry" />
        </mxCell>
        <mxCell id="ndV3JWdsCVKpFoXk2zZ--314" value="C:/test2" style="rounded=0;whiteSpace=wrap;html=1;strokeColor=none;fillColor=none;" parent="1" vertex="1">
          <mxGeometry x="1453.75" y="831" width="67.5" height="30" as="geometry" />
        </mxCell>
        <mxCell id="ndV3JWdsCVKpFoXk2zZ--315" value="Full save" style="rounded=0;whiteSpace=wrap;html=1;strokeColor=none;fillColor=none;" parent="1" vertex="1">
          <mxGeometry x="1535" y="831" width="67.5" height="30" as="geometry" />
        </mxCell>
        <mxCell id="ndV3JWdsCVKpFoXk2zZ--316" value="" style="endArrow=none;html=1;rounded=0;exitX=0.267;exitY=0;exitDx=0;exitDy=0;exitPerimeter=0;" parent="1" edge="1">
          <mxGeometry width="50" height="50" relative="1" as="geometry">
            <mxPoint x="1360.1125000000002" y="816" as="sourcePoint" />
            <mxPoint x="1360" y="892.8050847457625" as="targetPoint" />
          </mxGeometry>
        </mxCell>
        <mxCell id="ndV3JWdsCVKpFoXk2zZ--317" value="" style="endArrow=none;html=1;rounded=0;exitX=0;exitY=0;exitDx=0;exitDy=0;entryX=0;entryY=0.385;entryDx=0;entryDy=0;entryPerimeter=0;" parent="1" target="ndV3JWdsCVKpFoXk2zZ--309" edge="1">
          <mxGeometry width="50" height="50" relative="1" as="geometry">
            <mxPoint x="1269.9999999999995" y="816" as="sourcePoint" />
            <mxPoint x="1370" y="902.8050847457625" as="targetPoint" />
          </mxGeometry>
        </mxCell>
        <mxCell id="ndV3JWdsCVKpFoXk2zZ--318" value="Save job 2" style="rounded=0;whiteSpace=wrap;html=1;strokeColor=none;fillColor=none;" parent="1" vertex="1">
          <mxGeometry x="1281.25" y="885" width="67.5" height="30" as="geometry" />
        </mxCell>
        <mxCell id="ndV3JWdsCVKpFoXk2zZ--319" value="C:/test" style="rounded=0;whiteSpace=wrap;html=1;strokeColor=none;fillColor=none;" parent="1" vertex="1">
          <mxGeometry x="1368.75" y="885" width="67.5" height="30" as="geometry" />
        </mxCell>
        <mxCell id="ndV3JWdsCVKpFoXk2zZ--320" value="C:/test2" style="rounded=0;whiteSpace=wrap;html=1;strokeColor=none;fillColor=none;" parent="1" vertex="1">
          <mxGeometry x="1453.75" y="885" width="67.5" height="30" as="geometry" />
        </mxCell>
        <mxCell id="ndV3JWdsCVKpFoXk2zZ--321" value="Differential save" style="rounded=0;whiteSpace=wrap;html=1;strokeColor=none;fillColor=none;" parent="1" vertex="1">
          <mxGeometry x="1535" y="885" width="67.5" height="30" as="geometry" />
        </mxCell>
        <mxCell id="ndV3JWdsCVKpFoXk2zZ--322" value="" style="endArrow=none;html=1;rounded=0;exitX=0.267;exitY=0;exitDx=0;exitDy=0;exitPerimeter=0;entryX=0.001;entryY=0.384;entryDx=0;entryDy=0;entryPerimeter=0;" parent="1" target="ndV3JWdsCVKpFoXk2zZ--311" edge="1">
          <mxGeometry width="50" height="50" relative="1" as="geometry">
            <mxPoint x="1445" y="812.5999999999999" as="sourcePoint" />
            <mxPoint x="1444.5" y="889.4050847457627" as="targetPoint" />
          </mxGeometry>
        </mxCell>
        <mxCell id="ndV3JWdsCVKpFoXk2zZ--323" value="" style="endArrow=none;html=1;rounded=0;entryX=1;entryY=1;entryDx=0;entryDy=0;" parent="1" edge="1">
          <mxGeometry width="50" height="50" relative="1" as="geometry">
            <mxPoint x="1270" y="876" as="sourcePoint" />
            <mxPoint x="1607.5" y="876" as="targetPoint" />
          </mxGeometry>
        </mxCell>
        <mxCell id="ndV3JWdsCVKpFoXk2zZ--324" value="" style="endArrow=none;html=1;rounded=0;exitX=0.267;exitY=0;exitDx=0;exitDy=0;exitPerimeter=0;entryX=0.999;entryY=0.382;entryDx=0;entryDy=0;entryPerimeter=0;" parent="1" target="ndV3JWdsCVKpFoXk2zZ--311" edge="1">
          <mxGeometry width="50" height="50" relative="1" as="geometry">
            <mxPoint x="1530" y="812.5999999999999" as="sourcePoint" />
            <mxPoint x="1529.5" y="889.4050847457627" as="targetPoint" />
          </mxGeometry>
        </mxCell>
        <mxCell id="ndV3JWdsCVKpFoXk2zZ--325" value="" style="endArrow=none;html=1;rounded=0;entryX=1;entryY=1;entryDx=0;entryDy=0;exitX=0.001;exitY=0.661;exitDx=0;exitDy=0;exitPerimeter=0;" parent="1" source="ndV3JWdsCVKpFoXk2zZ--309" edge="1">
          <mxGeometry width="50" height="50" relative="1" as="geometry">
            <mxPoint x="1267.5" y="925" as="sourcePoint" />
            <mxPoint x="1607" y="925" as="targetPoint" />
          </mxGeometry>
        </mxCell>
        <mxCell id="ndV3JWdsCVKpFoXk2zZ--327" value="Delete save job" style="rounded=0;whiteSpace=wrap;html=1;" parent="1" vertex="1">
          <mxGeometry x="1107.5" y="911" width="150" height="30" as="geometry" />
        </mxCell>
        <mxCell id="ndV3JWdsCVKpFoXk2zZ--328" value="Settings" style="rounded=0;whiteSpace=wrap;html=1;fillColor=#dae8fc;strokeColor=#6c8ebf;" parent="1" vertex="1">
          <mxGeometry x="1107.5" y="951" width="150" height="30" as="geometry" />
        </mxCell>
        <mxCell id="ndV3JWdsCVKpFoXk2zZ--329" value="Close" style="rounded=0;whiteSpace=wrap;html=1;" parent="1" vertex="1">
          <mxGeometry x="1562.5" y="715" width="40" height="20" as="geometry" />
        </mxCell>
        <mxCell id="ndV3JWdsCVKpFoXk2zZ--330" value="Launch save job" style="rounded=0;whiteSpace=wrap;html=1;" parent="1" vertex="1">
          <mxGeometry x="1107.5" y="786" width="150" height="30" as="geometry" />
        </mxCell>
        <mxCell id="ndV3JWdsCVKpFoXk2zZ--331" value="Create save job" style="rounded=0;whiteSpace=wrap;html=1;" parent="1" vertex="1">
          <mxGeometry x="1107.5" y="825" width="150" height="30" as="geometry" />
        </mxCell>
        <mxCell id="ndV3JWdsCVKpFoXk2zZ--336" value="Update save job" style="rounded=0;whiteSpace=wrap;html=1;" parent="1" vertex="1">
          <mxGeometry x="1107.5" y="865" width="150" height="30" as="geometry" />
        </mxCell>
        <mxCell id="cUJbClCw-9PuHn5hxpVJ-21" value="" style="rounded=0;whiteSpace=wrap;html=1;" vertex="1" parent="1">
          <mxGeometry x="-511.79" y="1244" width="520" height="410" as="geometry" />
        </mxCell>
        <mxCell id="cUJbClCw-9PuHn5hxpVJ-22" value="SaveJob name :" style="text;html=1;strokeColor=none;fillColor=none;align=center;verticalAlign=middle;whiteSpace=wrap;rounded=0;" vertex="1" parent="1">
          <mxGeometry x="-463.04000000000013" y="1325" width="90" height="30" as="geometry" />
        </mxCell>
        <mxCell id="cUJbClCw-9PuHn5hxpVJ-23" value="" style="rounded=0;whiteSpace=wrap;html=1;" vertex="1" parent="1">
          <mxGeometry x="-463.04" y="1353.5" width="108.75" height="20" as="geometry" />
        </mxCell>
        <mxCell id="cUJbClCw-9PuHn5hxpVJ-24" value="Source Folder :" style="text;html=1;strokeColor=none;fillColor=none;align=center;verticalAlign=middle;whiteSpace=wrap;rounded=0;" vertex="1" parent="1">
          <mxGeometry x="-486.79000000000013" y="1375.5" width="132.5" height="30" as="geometry" />
        </mxCell>
        <mxCell id="cUJbClCw-9PuHn5hxpVJ-25" value="" style="rounded=0;whiteSpace=wrap;html=1;" vertex="1" parent="1">
          <mxGeometry x="-462.5" y="1405.5" width="258.75" height="44.5" as="geometry" />
        </mxCell>
        <mxCell id="cUJbClCw-9PuHn5hxpVJ-26" value="Destination Folder :" style="text;html=1;strokeColor=none;fillColor=none;align=center;verticalAlign=middle;whiteSpace=wrap;rounded=0;" vertex="1" parent="1">
          <mxGeometry x="-474.91" y="1454" width="132.5" height="38" as="geometry" />
        </mxCell>
        <mxCell id="cUJbClCw-9PuHn5hxpVJ-27" value="" style="rounded=0;whiteSpace=wrap;html=1;" vertex="1" parent="1">
          <mxGeometry x="-462.5" y="1484.75" width="258.21" height="40.5" as="geometry" />
        </mxCell>
        <mxCell id="cUJbClCw-9PuHn5hxpVJ-28" value="" style="rounded=0;whiteSpace=wrap;html=1;" vertex="1" parent="1">
          <mxGeometry x="457.5" y="1253.5" width="520" height="320" as="geometry" />
        </mxCell>
        <mxCell id="cUJbClCw-9PuHn5hxpVJ-29" value="&lt;font style=&quot;font-size: 22px;&quot;&gt;Delete save job&lt;/font&gt;" style="text;html=1;strokeColor=none;fillColor=none;align=center;verticalAlign=middle;whiteSpace=wrap;rounded=0;" vertex="1" parent="1">
          <mxGeometry x="467.5" y="1270" width="180" height="30" as="geometry" />
        </mxCell>
        <mxCell id="cUJbClCw-9PuHn5hxpVJ-30" value="Close" style="rounded=0;whiteSpace=wrap;html=1;" vertex="1" parent="1">
          <mxGeometry x="927.5" y="1268.5" width="40" height="20" as="geometry" />
        </mxCell>
        <mxCell id="cUJbClCw-9PuHn5hxpVJ-31" value="&lt;font style=&quot;font-size: 22px;&quot;&gt;Update/ Create save job&lt;/font&gt;" style="text;html=1;strokeColor=none;fillColor=none;align=center;verticalAlign=middle;whiteSpace=wrap;rounded=0;" vertex="1" parent="1">
          <mxGeometry x="-513.75" y="1259" width="282.5" height="30" as="geometry" />
        </mxCell>
        <mxCell id="cUJbClCw-9PuHn5hxpVJ-32" value="Close" style="rounded=0;whiteSpace=wrap;html=1;" vertex="1" parent="1">
          <mxGeometry x="-31.79000000000002" y="1268.5" width="40" height="20" as="geometry" />
        </mxCell>
        <mxCell id="cUJbClCw-9PuHn5hxpVJ-33" value="" style="rounded=0;whiteSpace=wrap;html=1;" vertex="1" parent="1">
          <mxGeometry x="-462.5" y="1553.25" width="108.75" height="20" as="geometry" />
        </mxCell>
        <mxCell id="cUJbClCw-9PuHn5hxpVJ-34" value="Save Type" style="text;html=1;strokeColor=none;fillColor=none;align=center;verticalAlign=middle;whiteSpace=wrap;rounded=0;" vertex="1" parent="1">
          <mxGeometry x="-496.79" y="1525.25" width="132.5" height="38" as="geometry" />
        </mxCell>
        <mxCell id="cUJbClCw-9PuHn5hxpVJ-35" value="" style="rounded=0;whiteSpace=wrap;html=1;" vertex="1" parent="1">
          <mxGeometry x="-373.75" y="1553.25" width="20" height="20" as="geometry" />
        </mxCell>
        <mxCell id="cUJbClCw-9PuHn5hxpVJ-36" value="" style="triangle;whiteSpace=wrap;html=1;rotation=90;" vertex="1" parent="1">
          <mxGeometry x="-368.75" y="1558.25" width="10" height="10" as="geometry" />
        </mxCell>
        <mxCell id="cUJbClCw-9PuHn5hxpVJ-37" value="Full" style="rounded=0;whiteSpace=wrap;html=1;fillColor=#f5f5f5;fontColor=#333333;strokeColor=#666666;dashed=1;" vertex="1" parent="1">
          <mxGeometry x="-462.5" y="1573.25" width="108.75" height="20" as="geometry" />
        </mxCell>
        <mxCell id="cUJbClCw-9PuHn5hxpVJ-38" value="Differential" style="rounded=0;whiteSpace=wrap;html=1;fillColor=#f5f5f5;fontColor=#333333;strokeColor=#666666;dashed=1;" vertex="1" parent="1">
          <mxGeometry x="-462.5" y="1593.25" width="108.75" height="20" as="geometry" />
        </mxCell>
        <mxCell id="cUJbClCw-9PuHn5hxpVJ-39" value="Save" style="rounded=0;whiteSpace=wrap;html=1;" vertex="1" parent="1">
          <mxGeometry x="-289.91" y="1623.5" width="108.75" height="20" as="geometry" />
        </mxCell>
        <mxCell id="cUJbClCw-9PuHn5hxpVJ-40" value="" style="shape=image;html=1;verticalAlign=top;verticalLabelPosition=bottom;labelBackgroundColor=#ffffff;imageAspect=0;aspect=fixed;image=https://cdn1.iconfinder.com/data/icons/seo-and-web-development-6/32/development_website_warning_exclamation_mark_sign-128.png" vertex="1" parent="1">
          <mxGeometry x="500" y="1348.25" width="99.5" height="99.5" as="geometry" />
        </mxCell>
        <mxCell id="cUJbClCw-9PuHn5hxpVJ-41" value="&lt;font style=&quot;font-size: 22px;&quot;&gt;Delete &quot;SaveJob Name&quot; ?&lt;/font&gt;" style="text;html=1;strokeColor=none;fillColor=none;align=center;verticalAlign=middle;whiteSpace=wrap;rounded=0;" vertex="1" parent="1">
          <mxGeometry x="612.25" y="1383" width="292.5" height="30" as="geometry" />
        </mxCell>
        <mxCell id="cUJbClCw-9PuHn5hxpVJ-43" value="" style="endArrow=classic;html=1;rounded=0;exitX=0.5;exitY=1;exitDx=0;exitDy=0;entryX=0.5;entryY=0;entryDx=0;entryDy=0;" edge="1" parent="1" source="ndV3JWdsCVKpFoXk2zZ--152" target="cUJbClCw-9PuHn5hxpVJ-21">
          <mxGeometry width="50" height="50" relative="1" as="geometry">
            <mxPoint x="110" y="940" as="sourcePoint" />
            <mxPoint x="160" y="890" as="targetPoint" />
            <Array as="points">
              <mxPoint x="-592" y="1130" />
              <mxPoint x="-252" y="1130" />
            </Array>
          </mxGeometry>
        </mxCell>
        <mxCell id="cUJbClCw-9PuHn5hxpVJ-44" value="" style="endArrow=classic;html=1;rounded=0;exitX=0.5;exitY=1;exitDx=0;exitDy=0;entryX=0.5;entryY=0;entryDx=0;entryDy=0;" edge="1" parent="1" source="ndV3JWdsCVKpFoXk2zZ--241" target="cUJbClCw-9PuHn5hxpVJ-21">
          <mxGeometry width="50" height="50" relative="1" as="geometry">
            <mxPoint x="110" y="940" as="sourcePoint" />
            <mxPoint x="160" y="890" as="targetPoint" />
            <Array as="points">
              <mxPoint x="67" y="1130" />
              <mxPoint x="-252" y="1130" />
            </Array>
          </mxGeometry>
        </mxCell>
        <mxCell id="cUJbClCw-9PuHn5hxpVJ-45" value="" style="endArrow=classic;html=1;rounded=0;exitX=0.5;exitY=1;exitDx=0;exitDy=0;entryX=0.5;entryY=0;entryDx=0;entryDy=0;" edge="1" parent="1" source="ndV3JWdsCVKpFoXk2zZ--119" target="cUJbClCw-9PuHn5hxpVJ-28">
          <mxGeometry width="50" height="50" relative="1" as="geometry">
            <mxPoint x="540" y="940" as="sourcePoint" />
            <mxPoint x="590" y="890" as="targetPoint" />
          </mxGeometry>
        </mxCell>
        <mxCell id="cUJbClCw-9PuHn5hxpVJ-46" value="&lt;b&gt;&lt;font style=&quot;font-size: 14px;&quot;&gt;YES&lt;/font&gt;&lt;/b&gt;" style="rounded=0;whiteSpace=wrap;html=1;" vertex="1" parent="1">
          <mxGeometry x="550" y="1510" width="148.75" height="38.25" as="geometry" />
        </mxCell>
        <mxCell id="cUJbClCw-9PuHn5hxpVJ-47" value="&lt;b&gt;&lt;font style=&quot;font-size: 14px;&quot;&gt;NO&lt;/font&gt;&lt;/b&gt;" style="rounded=0;whiteSpace=wrap;html=1;" vertex="1" parent="1">
          <mxGeometry x="732.5" y="1510" width="148.75" height="38.25" as="geometry" />
        </mxCell>
        <mxCell id="cUJbClCw-9PuHn5hxpVJ-49" value="" style="rounded=0;whiteSpace=wrap;html=1;strokeColor=none;fillColor=#dae8fc;" vertex="1" parent="1">
          <mxGeometry x="-20" y="816" width="337.5" height="60" as="geometry" />
        </mxCell>
        <mxCell id="ndV3JWdsCVKpFoXk2zZ--243" value="Name" style="rounded=0;whiteSpace=wrap;html=1;" parent="1" vertex="1">
          <mxGeometry x="-20" y="786" width="90" height="30" as="geometry" />
        </mxCell>
        <mxCell id="ndV3JWdsCVKpFoXk2zZ--244" value="Source" style="rounded=0;whiteSpace=wrap;html=1;" parent="1" vertex="1">
          <mxGeometry x="70" y="786" width="85" height="30" as="geometry" />
        </mxCell>
        <mxCell id="ndV3JWdsCVKpFoXk2zZ--245" value="Destination" style="rounded=0;whiteSpace=wrap;html=1;" parent="1" vertex="1">
          <mxGeometry x="155" y="786" width="85" height="30" as="geometry" />
        </mxCell>
        <mxCell id="ndV3JWdsCVKpFoXk2zZ--246" value="Type" style="rounded=0;whiteSpace=wrap;html=1;" parent="1" vertex="1">
          <mxGeometry x="240" y="786" width="77.5" height="30" as="geometry" />
        </mxCell>
        <mxCell id="ndV3JWdsCVKpFoXk2zZ--254" value="" style="endArrow=none;html=1;rounded=0;exitX=0.267;exitY=0;exitDx=0;exitDy=0;exitPerimeter=0;" parent="1" edge="1">
          <mxGeometry width="50" height="50" relative="1" as="geometry">
            <mxPoint x="70.11250000000018" y="816" as="sourcePoint" />
            <mxPoint x="70" y="892.8050847457625" as="targetPoint" />
          </mxGeometry>
        </mxCell>
        <mxCell id="ndV3JWdsCVKpFoXk2zZ--255" value="" style="endArrow=none;html=1;rounded=0;exitX=0;exitY=0;exitDx=0;exitDy=0;entryX=0;entryY=0.385;entryDx=0;entryDy=0;entryPerimeter=0;" parent="1" target="ndV3JWdsCVKpFoXk2zZ--247" edge="1">
          <mxGeometry width="50" height="50" relative="1" as="geometry">
            <mxPoint x="-20.000000000000455" y="816" as="sourcePoint" />
            <mxPoint x="80" y="902.8050847457625" as="targetPoint" />
          </mxGeometry>
        </mxCell>
        <mxCell id="ndV3JWdsCVKpFoXk2zZ--259" value="Differential save" style="rounded=0;whiteSpace=wrap;html=1;strokeColor=none;fillColor=none;" parent="1" vertex="1">
          <mxGeometry x="245" y="885" width="67.5" height="30" as="geometry" />
        </mxCell>
        <mxCell id="ndV3JWdsCVKpFoXk2zZ--260" value="" style="endArrow=none;html=1;rounded=0;exitX=0.267;exitY=0;exitDx=0;exitDy=0;exitPerimeter=0;entryX=0.001;entryY=0.384;entryDx=0;entryDy=0;entryPerimeter=0;" parent="1" target="ndV3JWdsCVKpFoXk2zZ--249" edge="1">
          <mxGeometry width="50" height="50" relative="1" as="geometry">
            <mxPoint x="155" y="812.5999999999999" as="sourcePoint" />
            <mxPoint x="154.5" y="889.4050847457627" as="targetPoint" />
          </mxGeometry>
        </mxCell>
        <mxCell id="ndV3JWdsCVKpFoXk2zZ--261" value="" style="endArrow=none;html=1;rounded=0;entryX=1;entryY=1;entryDx=0;entryDy=0;" parent="1" edge="1">
          <mxGeometry width="50" height="50" relative="1" as="geometry">
            <mxPoint x="-20" y="876" as="sourcePoint" />
            <mxPoint x="317.5" y="876" as="targetPoint" />
          </mxGeometry>
        </mxCell>
        <mxCell id="ndV3JWdsCVKpFoXk2zZ--262" value="" style="endArrow=none;html=1;rounded=0;exitX=0.267;exitY=0;exitDx=0;exitDy=0;exitPerimeter=0;entryX=0.999;entryY=0.382;entryDx=0;entryDy=0;entryPerimeter=0;" parent="1" target="ndV3JWdsCVKpFoXk2zZ--249" edge="1">
          <mxGeometry width="50" height="50" relative="1" as="geometry">
            <mxPoint x="240" y="812.5999999999999" as="sourcePoint" />
            <mxPoint x="239.5" y="889.4050847457627" as="targetPoint" />
          </mxGeometry>
        </mxCell>
        <mxCell id="ndV3JWdsCVKpFoXk2zZ--250" value="Save job 1" style="rounded=0;whiteSpace=wrap;html=1;strokeColor=none;fillColor=none;" parent="1" vertex="1">
          <mxGeometry x="-8.75" y="831" width="67.5" height="30" as="geometry" />
        </mxCell>
        <mxCell id="ndV3JWdsCVKpFoXk2zZ--251" value="C:/test" style="rounded=0;whiteSpace=wrap;html=1;strokeColor=none;fillColor=none;" parent="1" vertex="1">
          <mxGeometry x="78.75" y="831" width="67.5" height="30" as="geometry" />
        </mxCell>
        <mxCell id="ndV3JWdsCVKpFoXk2zZ--252" value="C:/test2" style="rounded=0;whiteSpace=wrap;html=1;strokeColor=none;fillColor=none;" parent="1" vertex="1">
          <mxGeometry x="163.75" y="831" width="67.5" height="30" as="geometry" />
        </mxCell>
        <mxCell id="ndV3JWdsCVKpFoXk2zZ--253" value="Full save" style="rounded=0;whiteSpace=wrap;html=1;strokeColor=none;fillColor=none;" parent="1" vertex="1">
          <mxGeometry x="245" y="831" width="67.5" height="30" as="geometry" />
        </mxCell>
        <mxCell id="cUJbClCw-9PuHn5hxpVJ-51" value="" style="rounded=0;whiteSpace=wrap;html=1;" vertex="1" parent="1">
          <mxGeometry x="1215" y="1348" width="108.75" height="20" as="geometry" />
        </mxCell>
        <mxCell id="cUJbClCw-9PuHn5hxpVJ-52" value="" style="rounded=0;whiteSpace=wrap;html=1;" vertex="1" parent="1">
          <mxGeometry x="1303.75" y="1348" width="20" height="20" as="geometry" />
        </mxCell>
        <mxCell id="cUJbClCw-9PuHn5hxpVJ-53" value="" style="triangle;whiteSpace=wrap;html=1;rotation=90;" vertex="1" parent="1">
          <mxGeometry x="1308.75" y="1353" width="10" height="10" as="geometry" />
        </mxCell>
        <mxCell id="cUJbClCw-9PuHn5hxpVJ-54" value="English" style="rounded=0;whiteSpace=wrap;html=1;fillColor=#f5f5f5;fontColor=#333333;strokeColor=#666666;dashed=1;" vertex="1" parent="1">
          <mxGeometry x="1215" y="1368" width="108.75" height="20" as="geometry" />
        </mxCell>
        <mxCell id="cUJbClCw-9PuHn5hxpVJ-55" value="Français" style="rounded=0;whiteSpace=wrap;html=1;fillColor=#f5f5f5;fontColor=#333333;strokeColor=#666666;dashed=1;" vertex="1" parent="1">
          <mxGeometry x="1215" y="1388" width="108.75" height="20" as="geometry" />
        </mxCell>
        <mxCell id="cUJbClCw-9PuHn5hxpVJ-57" value="" style="rounded=0;whiteSpace=wrap;html=1;" vertex="1" parent="1">
          <mxGeometry x="1363.75" y="1348" width="108.75" height="20" as="geometry" />
        </mxCell>
        <mxCell id="cUJbClCw-9PuHn5hxpVJ-58" value="" style="rounded=0;whiteSpace=wrap;html=1;" vertex="1" parent="1">
          <mxGeometry x="1452.5" y="1348" width="20" height="20" as="geometry" />
        </mxCell>
        <mxCell id="cUJbClCw-9PuHn5hxpVJ-59" value="" style="triangle;whiteSpace=wrap;html=1;rotation=90;" vertex="1" parent="1">
          <mxGeometry x="1457.5" y="1353" width="10" height="10" as="geometry" />
        </mxCell>
        <mxCell id="cUJbClCw-9PuHn5hxpVJ-60" value="JSON" style="rounded=0;whiteSpace=wrap;html=1;fillColor=#f5f5f5;fontColor=#333333;strokeColor=#666666;dashed=1;" vertex="1" parent="1">
          <mxGeometry x="1363.75" y="1368" width="108.75" height="20" as="geometry" />
        </mxCell>
        <mxCell id="cUJbClCw-9PuHn5hxpVJ-61" value="XML" style="rounded=0;whiteSpace=wrap;html=1;fillColor=#f5f5f5;fontColor=#333333;strokeColor=#666666;dashed=1;" vertex="1" parent="1">
          <mxGeometry x="1363.75" y="1388" width="108.75" height="20" as="geometry" />
        </mxCell>
        <mxCell id="cUJbClCw-9PuHn5hxpVJ-62" value="&lt;font style=&quot;font-size: 17px;&quot;&gt;Professionnal&lt;br&gt;&amp;nbsp;Apps :&lt;/font&gt;" style="text;html=1;strokeColor=none;fillColor=none;align=left;verticalAlign=middle;whiteSpace=wrap;rounded=0;" vertex="1" parent="1">
          <mxGeometry x="1213.75" y="1431.5" width="165" height="40" as="geometry" />
        </mxCell>
        <mxCell id="cUJbClCw-9PuHn5hxpVJ-63" value="&lt;font style=&quot;font-size: 18px;&quot;&gt;Extensions &lt;br&gt;to :&lt;/font&gt;" style="text;html=1;strokeColor=none;fillColor=none;align=left;verticalAlign=middle;whiteSpace=wrap;rounded=0;" vertex="1" parent="1">
          <mxGeometry x="1362.5" y="1436.5" width="200" height="30" as="geometry" />
        </mxCell>
        <mxCell id="cUJbClCw-9PuHn5hxpVJ-64" value="(text zone)" style="rounded=0;whiteSpace=wrap;html=1;align=left;" vertex="1" parent="1">
          <mxGeometry x="1370" y="1477" width="120" height="73" as="geometry" />
        </mxCell>
        <mxCell id="cUJbClCw-9PuHn5hxpVJ-65" value="Save" style="rounded=0;whiteSpace=wrap;html=1;" vertex="1" parent="1">
          <mxGeometry x="1281.25" y="1568.25" width="60" height="20" as="geometry" />
        </mxCell>
        <mxCell id="cUJbClCw-9PuHn5hxpVJ-66" value="Save" style="rounded=0;whiteSpace=wrap;html=1;" vertex="1" parent="1">
          <mxGeometry x="1430" y="1568.25" width="60" height="20" as="geometry" />
        </mxCell>
        <mxCell id="cUJbClCw-9PuHn5hxpVJ-67" value="" style="endArrow=classic;html=1;rounded=0;exitX=0.5;exitY=1;exitDx=0;exitDy=0;entryX=0.5;entryY=0;entryDx=0;entryDy=0;" edge="1" parent="1" source="ndV3JWdsCVKpFoXk2zZ--303" target="NSSNdUl1MLXboPLtLDol-12">
          <mxGeometry width="50" height="50" relative="1" as="geometry">
            <mxPoint x="1380" y="1210" as="sourcePoint" />
            <mxPoint x="1430" y="1160" as="targetPoint" />
          </mxGeometry>
        </mxCell>
        <mxCell id="cUJbClCw-9PuHn5hxpVJ-69" value="" style="rounded=0;whiteSpace=wrap;html=1;" vertex="1" parent="1">
          <mxGeometry x="-1562.5" y="1238" width="520" height="320" as="geometry" />
        </mxCell>
        <mxCell id="cUJbClCw-9PuHn5hxpVJ-70" value="&lt;font style=&quot;font-size: 22px;&quot;&gt;Launch save job&lt;/font&gt;" style="text;html=1;strokeColor=none;fillColor=none;align=center;verticalAlign=middle;whiteSpace=wrap;rounded=0;" vertex="1" parent="1">
          <mxGeometry x="-1552.5" y="1254.5" width="180" height="30" as="geometry" />
        </mxCell>
        <mxCell id="cUJbClCw-9PuHn5hxpVJ-71" value="Close" style="rounded=0;whiteSpace=wrap;html=1;" vertex="1" parent="1">
          <mxGeometry x="-1092.5" y="1253" width="40" height="20" as="geometry" />
        </mxCell>
        <mxCell id="cUJbClCw-9PuHn5hxpVJ-73" value="&lt;font style=&quot;font-size: 32px;&quot;&gt;Executing SaveJob&lt;/font&gt;" style="text;html=1;strokeColor=none;fillColor=none;align=center;verticalAlign=middle;whiteSpace=wrap;rounded=0;" vertex="1" parent="1">
          <mxGeometry x="-1461" y="1398.5" width="292.5" height="30" as="geometry" />
        </mxCell>
        <mxCell id="cUJbClCw-9PuHn5hxpVJ-77" value="" style="endArrow=classic;html=1;rounded=0;exitX=0.5;exitY=1;exitDx=0;exitDy=0;entryX=0.5;entryY=0;entryDx=0;entryDy=0;" edge="1" parent="1" source="ndV3JWdsCVKpFoXk2zZ--22" target="cUJbClCw-9PuHn5hxpVJ-69">
          <mxGeometry width="50" height="50" relative="1" as="geometry">
            <mxPoint x="-530" y="1110" as="sourcePoint" />
            <mxPoint x="-480" y="1060" as="targetPoint" />
          </mxGeometry>
        </mxCell>
      </root>
    </mxGraphModel>
  </diagram>
</mxfile>
